<?xml version="1.0" encoding="utf-8" ?>
<svg baseProfile="full" height="100%" version="1.1" width="100%" xmlns="http://www.w3.org/2000/svg" xmlns:ev="http://www.w3.org/2001/xml-events" xmlns:xlink="http://www.w3.org/1999/xlink"><defs /><rect fill="black" height="300mm" width="40mm" x="0mm" y="0mm" /><rect fill="white" height="1.25mm" width="9mm" x="10mm" y="10.0mm" /><rect fill="black" height="0.5mm" width="6mm" x="10mm" y="10.375mm" /><rect fill="white" height="1.25mm" width="6mm" x="10mm" y="41.10176727053895mm" /><rect fill="black" height="0.5mm" width="3mm" x="10mm" y="41.47676727053895mm" /><rect fill="white" height="1.25mm" width="3mm" x="10mm" y="13.110176727053895mm" /><rect fill="black" height="0.5mm" width="3mm" x="10mm" y="13.485176727053895mm" /><rect fill="white" height="1.25mm" width="3mm" x="10mm" y="16.22035345410779mm" /><rect fill="black" height="0.5mm" width="3mm" x="10mm" y="16.59535345410779mm" /><rect fill="white" height="1.25mm" width="3mm" x="10mm" y="19.330530181161684mm" /><rect fill="black" height="0.5mm" width="3mm" x="10mm" y="19.705530181161684mm" /><rect fill="white" height="1.25mm" width="3mm" x="10mm" y="22.44070690821558mm" /><rect fill="black" height="0.5mm" width="3mm" x="10mm" y="22.81570690821558mm" /><rect fill="white" height="1.25mm" width="3mm" x="10mm" y="25.550883635269475mm" /><rect fill="black" height="0.5mm" width="3mm" x="10mm" y="25.925883635269475mm" /><rect fill="white" height="1.25mm" width="3mm" x="10mm" y="28.66106036232337mm" /><rect fill="black" height="0.5mm" width="3mm" x="10mm" y="29.03606036232337mm" /><rect fill="white" height="1.25mm" width="3mm" x="10mm" y="31.771237089377266mm" /><rect fill="black" height="0.5mm" width="3mm" x="10mm" y="32.146237089377266mm" /><rect fill="white" height="1.25mm" width="3mm" x="10mm" y="34.88141381643116mm" /><rect fill="black" height="0.5mm" width="3mm" x="10mm" y="35.25641381643116mm" /><rect fill="white" height="1.25mm" width="3mm" x="10mm" y="37.99159054348505mm" /><rect fill="black" height="0.5mm" width="3mm" x="10mm" y="38.36659054348505mm" /><rect fill="white" height="1.25mm" width="6mm" x="10mm" y="25.550883635269475mm" /><rect fill="black" height="0.5mm" width="3mm" x="10mm" y="25.925883635269475mm" /><rect fill="white" height="1.25mm" width="9mm" x="10mm" y="44.55751918948772mm" /><rect fill="black" height="0.5mm" width="6mm" x="10mm" y="44.93251918948772mm" /><rect fill="white" height="1.25mm" width="6mm" x="10mm" y="75.65928646002666mm" /><rect fill="black" height="0.5mm" width="3mm" x="10mm" y="76.03428646002666mm" /><rect fill="white" height="1.25mm" width="3mm" x="10mm" y="47.66769591654162mm" /><rect fill="black" height="0.5mm" width="3mm" x="10mm" y="48.04269591654162mm" /><rect fill="white" height="1.25mm" width="3mm" x="10mm" y="50.77787264359551mm" /><rect fill="black" height="0.5mm" width="3mm" x="10mm" y="51.15287264359551mm" /><rect fill="white" height="1.25mm" width="3mm" x="10mm" y="53.888049370649405mm" /><rect fill="black" height="0.5mm" width="3mm" x="10mm" y="54.263049370649405mm" /><rect fill="white" height="1.25mm" width="3mm" x="10mm" y="56.9982260977033mm" /><rect fill="black" height="0.5mm" width="3mm" x="10mm" y="57.3732260977033mm" /><rect fill="white" height="1.25mm" width="3mm" x="10mm" y="60.10840282475719mm" /><rect fill="black" height="0.5mm" width="3mm" x="10mm" y="60.48340282475719mm" /><rect fill="white" height="1.25mm" width="3mm" x="10mm" y="63.21857955181109mm" /><rect fill="black" height="0.5mm" width="3mm" x="10mm" y="63.59357955181109mm" /><rect fill="white" height="1.25mm" width="3mm" x="10mm" y="66.32875627886499mm" /><rect fill="black" height="0.5mm" width="3mm" x="10mm" y="66.70375627886499mm" /><rect fill="white" height="1.25mm" width="3mm" x="10mm" y="69.43893300591888mm" /><rect fill="black" height="0.5mm" width="3mm" x="10mm" y="69.81393300591888mm" /><rect fill="white" height="1.25mm" width="3mm" x="10mm" y="72.54910973297277mm" /><rect fill="black" height="0.5mm" width="3mm" x="10mm" y="72.92410973297277mm" /><rect fill="white" height="1.25mm" width="6mm" x="10mm" y="60.10840282475719mm" /><rect fill="black" height="0.5mm" width="3mm" x="10mm" y="60.48340282475719mm" /><rect fill="white" height="1.25mm" width="9mm" x="10mm" y="79.11503837897544mm" /><rect fill="black" height="0.5mm" width="6mm" x="10mm" y="79.49003837897544mm" /><rect fill="white" height="1.25mm" width="6mm" x="10mm" y="110.21680564951438mm" /><rect fill="black" height="0.5mm" width="3mm" x="10mm" y="110.59180564951438mm" /><rect fill="white" height="1.25mm" width="3mm" x="10mm" y="82.22521510602934mm" /><rect fill="black" height="0.5mm" width="3mm" x="10mm" y="82.60021510602934mm" /><rect fill="white" height="1.25mm" width="3mm" x="10mm" y="85.33539183308324mm" /><rect fill="black" height="0.5mm" width="3mm" x="10mm" y="85.71039183308324mm" /><rect fill="white" height="1.25mm" width="3mm" x="10mm" y="88.44556856013713mm" /><rect fill="black" height="0.5mm" width="3mm" x="10mm" y="88.82056856013713mm" /><rect fill="white" height="1.25mm" width="3mm" x="10mm" y="91.55574528719102mm" /><rect fill="black" height="0.5mm" width="3mm" x="10mm" y="91.93074528719102mm" /><rect fill="white" height="1.25mm" width="3mm" x="10mm" y="94.66592201424491mm" /><rect fill="black" height="0.5mm" width="3mm" x="10mm" y="95.04092201424491mm" /><rect fill="white" height="1.25mm" width="3mm" x="10mm" y="97.77609874129881mm" /><rect fill="black" height="0.5mm" width="3mm" x="10mm" y="98.15109874129881mm" /><rect fill="white" height="1.25mm" width="3mm" x="10mm" y="100.88627546835271mm" /><rect fill="black" height="0.5mm" width="3mm" x="10mm" y="101.26127546835271mm" /><rect fill="white" height="1.25mm" width="3mm" x="10mm" y="103.9964521954066mm" /><rect fill="black" height="0.5mm" width="3mm" x="10mm" y="104.3714521954066mm" /><rect fill="white" height="1.25mm" width="3mm" x="10mm" y="107.10662892246049mm" /><rect fill="black" height="0.5mm" width="3mm" x="10mm" y="107.48162892246049mm" /><rect fill="white" height="1.25mm" width="6mm" x="10mm" y="94.66592201424491mm" /><rect fill="black" height="0.5mm" width="3mm" x="10mm" y="95.04092201424491mm" /><rect fill="white" height="1.25mm" width="9mm" x="10mm" y="113.67255756846316mm" /><rect fill="black" height="0.5mm" width="6mm" x="10mm" y="114.04755756846316mm" /><rect fill="white" height="1.25mm" width="6mm" x="10mm" y="144.7743248390021mm" /><rect fill="black" height="0.5mm" width="3mm" x="10mm" y="145.1493248390021mm" /><rect fill="white" height="1.25mm" width="3mm" x="10mm" y="116.78273429551706mm" /><rect fill="black" height="0.5mm" width="3mm" x="10mm" y="117.15773429551706mm" /><rect fill="white" height="1.25mm" width="3mm" x="10mm" y="119.89291102257096mm" /><rect fill="black" height="0.5mm" width="3mm" x="10mm" y="120.26791102257096mm" /><rect fill="white" height="1.25mm" width="3mm" x="10mm" y="123.00308774962485mm" /><rect fill="black" height="0.5mm" width="3mm" x="10mm" y="123.37808774962485mm" /><rect fill="white" height="1.25mm" width="3mm" x="10mm" y="126.11326447667874mm" /><rect fill="black" height="0.5mm" width="3mm" x="10mm" y="126.48826447667874mm" /><rect fill="white" height="1.25mm" width="3mm" x="10mm" y="129.22344120373265mm" /><rect fill="black" height="0.5mm" width="3mm" x="10mm" y="129.59844120373265mm" /><rect fill="white" height="1.25mm" width="3mm" x="10mm" y="132.33361793078655mm" /><rect fill="black" height="0.5mm" width="3mm" x="10mm" y="132.70861793078655mm" /><rect fill="white" height="1.25mm" width="3mm" x="10mm" y="135.44379465784044mm" /><rect fill="black" height="0.5mm" width="3mm" x="10mm" y="135.81879465784044mm" /><rect fill="white" height="1.25mm" width="3mm" x="10mm" y="138.5539713848943mm" /><rect fill="black" height="0.5mm" width="3mm" x="10mm" y="138.9289713848943mm" /><rect fill="white" height="1.25mm" width="3mm" x="10mm" y="141.6641481119482mm" /><rect fill="black" height="0.5mm" width="3mm" x="10mm" y="142.0391481119482mm" /><rect fill="white" height="1.25mm" width="6mm" x="10mm" y="129.22344120373265mm" /><rect fill="black" height="0.5mm" width="3mm" x="10mm" y="129.59844120373265mm" /><rect fill="white" height="1.25mm" width="9mm" x="10mm" y="148.23007675795088mm" /><rect fill="black" height="0.5mm" width="6mm" x="10mm" y="148.60507675795088mm" /><rect fill="white" height="1.25mm" width="6mm" x="10mm" y="179.33184402848983mm" /><rect fill="black" height="0.5mm" width="3mm" x="10mm" y="179.70684402848983mm" /><rect fill="white" height="1.25mm" width="3mm" x="10mm" y="151.34025348500478mm" /><rect fill="black" height="0.5mm" width="3mm" x="10mm" y="151.71525348500478mm" /><rect fill="white" height="1.25mm" width="3mm" x="10mm" y="154.45043021205868mm" /><rect fill="black" height="0.5mm" width="3mm" x="10mm" y="154.82543021205868mm" /><rect fill="white" height="1.25mm" width="3mm" x="10mm" y="157.56060693911257mm" /><rect fill="black" height="0.5mm" width="3mm" x="10mm" y="157.93560693911257mm" /><rect fill="white" height="1.25mm" width="3mm" x="10mm" y="160.67078366616647mm" /><rect fill="black" height="0.5mm" width="3mm" x="10mm" y="161.04578366616647mm" /><rect fill="white" height="1.25mm" width="3mm" x="10mm" y="163.78096039322037mm" /><rect fill="black" height="0.5mm" width="3mm" x="10mm" y="164.15596039322037mm" /><rect fill="white" height="1.25mm" width="3mm" x="10mm" y="166.89113712027427mm" /><rect fill="black" height="0.5mm" width="3mm" x="10mm" y="167.26613712027427mm" /><rect fill="white" height="1.25mm" width="3mm" x="10mm" y="170.00131384732816mm" /><rect fill="black" height="0.5mm" width="3mm" x="10mm" y="170.37631384732816mm" /><rect fill="white" height="1.25mm" width="3mm" x="10mm" y="173.11149057438203mm" /><rect fill="black" height="0.5mm" width="3mm" x="10mm" y="173.48649057438203mm" /><rect fill="white" height="1.25mm" width="3mm" x="10mm" y="176.22166730143593mm" /><rect fill="black" height="0.5mm" width="3mm" x="10mm" y="176.59666730143593mm" /><rect fill="white" height="1.25mm" width="6mm" x="10mm" y="163.78096039322037mm" /><rect fill="black" height="0.5mm" width="3mm" x="10mm" y="164.15596039322037mm" /><rect fill="white" height="1.25mm" width="9mm" x="10mm" y="182.7875959474386mm" /><rect fill="black" height="0.5mm" width="6mm" x="10mm" y="183.1625959474386mm" /><rect fill="white" height="1.25mm" width="6mm" x="10mm" y="213.88936321797755mm" /><rect fill="black" height="0.5mm" width="3mm" x="10mm" y="214.26436321797755mm" /><rect fill="white" height="1.25mm" width="3mm" x="10mm" y="185.8977726744925mm" /><rect fill="black" height="0.5mm" width="3mm" x="10mm" y="186.2727726744925mm" /><rect fill="white" height="1.25mm" width="3mm" x="10mm" y="189.0079494015464mm" /><rect fill="black" height="0.5mm" width="3mm" x="10mm" y="189.3829494015464mm" /><rect fill="white" height="1.25mm" width="3mm" x="10mm" y="192.1181261286003mm" /><rect fill="black" height="0.5mm" width="3mm" x="10mm" y="192.4931261286003mm" /><rect fill="white" height="1.25mm" width="3mm" x="10mm" y="195.2283028556542mm" /><rect fill="black" height="0.5mm" width="3mm" x="10mm" y="195.6033028556542mm" /><rect fill="white" height="1.25mm" width="3mm" x="10mm" y="198.3384795827081mm" /><rect fill="black" height="0.5mm" width="3mm" x="10mm" y="198.7134795827081mm" /><rect fill="white" height="1.25mm" width="3mm" x="10mm" y="201.448656309762mm" /><rect fill="black" height="0.5mm" width="3mm" x="10mm" y="201.823656309762mm" /><rect fill="white" height="1.25mm" width="3mm" x="10mm" y="204.55883303681588mm" /><rect fill="black" height="0.5mm" width="3mm" x="10mm" y="204.93383303681588mm" /><rect fill="white" height="1.25mm" width="3mm" x="10mm" y="207.66900976386975mm" /><rect fill="black" height="0.5mm" width="3mm" x="10mm" y="208.04400976386975mm" /><rect fill="white" height="1.25mm" width="3mm" x="10mm" y="210.77918649092365mm" /><rect fill="black" height="0.5mm" width="3mm" x="10mm" y="211.15418649092365mm" /><rect fill="white" height="1.25mm" width="6mm" x="10mm" y="198.3384795827081mm" /><rect fill="black" height="0.5mm" width="3mm" x="10mm" y="198.7134795827081mm" /><rect fill="white" height="1.25mm" width="9mm" x="10mm" y="217.34511513692632mm" /><rect fill="black" height="0.5mm" width="6mm" x="10mm" y="217.72011513692632mm" /><rect fill="white" height="1.25mm" width="6mm" x="10mm" y="248.44688240746527mm" /><rect fill="black" height="0.5mm" width="3mm" x="10mm" y="248.82188240746527mm" /><rect fill="white" height="1.25mm" width="3mm" x="10mm" y="220.45529186398022mm" /><rect fill="black" height="0.5mm" width="3mm" x="10mm" y="220.83029186398022mm" /><rect fill="white" height="1.25mm" width="3mm" x="10mm" y="223.56546859103412mm" /><rect fill="black" height="0.5mm" width="3mm" x="10mm" y="223.94046859103412mm" /><rect fill="white" height="1.25mm" width="3mm" x="10mm" y="226.67564531808802mm" /><rect fill="black" height="0.5mm" width="3mm" x="10mm" y="227.05064531808802mm" /><rect fill="white" height="1.25mm" width="3mm" x="10mm" y="229.7858220451419mm" /><rect fill="black" height="0.5mm" width="3mm" x="10mm" y="230.1608220451419mm" /><rect fill="white" height="1.25mm" width="3mm" x="10mm" y="232.8959987721958mm" /><rect fill="black" height="0.5mm" width="3mm" x="10mm" y="233.2709987721958mm" /><rect fill="white" height="1.25mm" width="3mm" x="10mm" y="236.0061754992497mm" /><rect fill="black" height="0.5mm" width="3mm" x="10mm" y="236.3811754992497mm" /><rect fill="white" height="1.25mm" width="3mm" x="10mm" y="239.1163522263036mm" /><rect fill="black" height="0.5mm" width="3mm" x="10mm" y="239.4913522263036mm" /><rect fill="white" height="1.25mm" width="3mm" x="10mm" y="242.22652895335747mm" /><rect fill="black" height="0.5mm" width="3mm" x="10mm" y="242.60152895335747mm" /><rect fill="white" height="1.25mm" width="3mm" x="10mm" y="245.33670568041137mm" /><rect fill="black" height="0.5mm" width="3mm" x="10mm" y="245.71170568041137mm" /><rect fill="white" height="1.25mm" width="6mm" x="10mm" y="232.8959987721958mm" /><rect fill="black" height="0.5mm" width="3mm" x="10mm" y="233.2709987721958mm" /><text fill="white" font-family="Helvetica" font-size="10mm" rotate="90" stroke="none" x="16mm" y="112.67255756846316mm">*</text></svg>