<?xml version="1.0" encoding="utf-8" ?>
<svg baseProfile="full" height="100%" version="1.1" width="100%" xmlns="http://www.w3.org/2000/svg" xmlns:ev="http://www.w3.org/2001/xml-events" xmlns:xlink="http://www.w3.org/1999/xlink"><defs /><rect fill="black" height="1.25mm" width="9mm" x="10mm" y="10.0mm" /><rect fill="black" height="1.25mm" width="9mm" x="10mm" y="48.39724354387525mm" /><rect fill="black" height="0.5mm" width="3mm" x="10mm" y="18.05444870877505mm" /><rect fill="black" height="0.5mm" width="3mm" x="10mm" y="21.894173063162576mm" /><rect fill="black" height="0.5mm" width="3mm" x="10mm" y="25.7338974175501mm" /><rect fill="black" height="0.5mm" width="3mm" x="10mm" y="29.573621771937624mm" /><rect fill="black" height="0.5mm" width="3mm" x="10mm" y="33.41334612632515mm" /><rect fill="black" height="0.5mm" width="3mm" x="10mm" y="37.25307048071268mm" /><rect fill="black" height="0.5mm" width="3mm" x="10mm" y="41.0927948351002mm" /><rect fill="black" height="0.5mm" width="3mm" x="10mm" y="44.93251918948773mm" /><rect fill="black" height="0.5mm" width="6mm" x="10mm" y="29.573621771937624mm" /><rect fill="white" height="0.5mm" width="6mm" x="10mm" y="10.375mm" /><rect fill="white" height="0.5mm" width="6mm" x="10mm" y="48.77224354387525mm" /><rect fill="black" height="1.25mm" width="9mm" x="10mm" y="44.55751918948772mm" /><rect fill="black" height="1.25mm" width="9mm" x="10mm" y="82.95476273336297mm" /><rect fill="black" height="0.5mm" width="3mm" x="10mm" y="52.61196789826277mm" /><rect fill="black" height="0.5mm" width="3mm" x="10mm" y="56.4516922526503mm" /><rect fill="black" height="0.5mm" width="3mm" x="10mm" y="60.29141660703782mm" /><rect fill="black" height="0.5mm" width="3mm" x="10mm" y="64.13114096142534mm" /><rect fill="black" height="0.5mm" width="3mm" x="10mm" y="67.97086531581287mm" /><rect fill="black" height="0.5mm" width="3mm" x="10mm" y="71.8105896702004mm" /><rect fill="black" height="0.5mm" width="3mm" x="10mm" y="75.65031402458791mm" /><rect fill="black" height="0.5mm" width="3mm" x="10mm" y="79.49003837897544mm" /><rect fill="black" height="0.5mm" width="6mm" x="10mm" y="64.13114096142534mm" /><rect fill="white" height="0.5mm" width="6mm" x="10mm" y="44.93251918948772mm" /><rect fill="white" height="0.5mm" width="6mm" x="10mm" y="83.32976273336297mm" /><rect fill="black" height="1.25mm" width="9mm" x="10mm" y="79.11503837897544mm" /><rect fill="black" height="1.25mm" width="9mm" x="10mm" y="117.51228192285069mm" /><rect fill="black" height="0.5mm" width="3mm" x="10mm" y="87.1694870877505mm" /><rect fill="black" height="0.5mm" width="3mm" x="10mm" y="91.00921144213802mm" /><rect fill="black" height="0.5mm" width="3mm" x="10mm" y="94.84893579652554mm" /><rect fill="black" height="0.5mm" width="3mm" x="10mm" y="98.68866015091307mm" /><rect fill="black" height="0.5mm" width="3mm" x="10mm" y="102.5283845053006mm" /><rect fill="black" height="0.5mm" width="3mm" x="10mm" y="106.36810885968812mm" /><rect fill="black" height="0.5mm" width="3mm" x="10mm" y="110.20783321407563mm" /><rect fill="black" height="0.5mm" width="3mm" x="10mm" y="114.04755756846316mm" /><rect fill="black" height="0.5mm" width="6mm" x="10mm" y="98.68866015091307mm" /><rect fill="white" height="0.5mm" width="6mm" x="10mm" y="79.49003837897544mm" /><rect fill="white" height="0.5mm" width="6mm" x="10mm" y="117.88728192285069mm" /><rect fill="black" height="1.25mm" width="9mm" x="10mm" y="113.67255756846316mm" /><rect fill="black" height="1.25mm" width="9mm" x="10mm" y="152.0698011123384mm" /><rect fill="black" height="0.5mm" width="3mm" x="10mm" y="121.72700627723822mm" /><rect fill="black" height="0.5mm" width="3mm" x="10mm" y="125.56673063162575mm" /><rect fill="black" height="0.5mm" width="3mm" x="10mm" y="129.40645498601327mm" /><rect fill="black" height="0.5mm" width="3mm" x="10mm" y="133.24617934040077mm" /><rect fill="black" height="0.5mm" width="3mm" x="10mm" y="137.08590369478833mm" /><rect fill="black" height="0.5mm" width="3mm" x="10mm" y="140.92562804917583mm" /><rect fill="black" height="0.5mm" width="3mm" x="10mm" y="144.76535240356336mm" /><rect fill="black" height="0.5mm" width="3mm" x="10mm" y="148.60507675795088mm" /><rect fill="black" height="0.5mm" width="6mm" x="10mm" y="133.24617934040077mm" /><rect fill="white" height="0.5mm" width="6mm" x="10mm" y="114.04755756846316mm" /><rect fill="white" height="0.5mm" width="6mm" x="10mm" y="152.4448011123384mm" /><rect fill="black" height="1.25mm" width="9mm" x="10mm" y="148.23007675795088mm" /><rect fill="black" height="1.25mm" width="9mm" x="10mm" y="186.62732030182613mm" /><rect fill="black" height="0.5mm" width="3mm" x="10mm" y="156.28452546672594mm" /><rect fill="black" height="0.5mm" width="3mm" x="10mm" y="160.12424982111347mm" /><rect fill="black" height="0.5mm" width="3mm" x="10mm" y="163.963974175501mm" /><rect fill="black" height="0.5mm" width="3mm" x="10mm" y="167.8036985298885mm" /><rect fill="black" height="0.5mm" width="3mm" x="10mm" y="171.64342288427605mm" /><rect fill="black" height="0.5mm" width="3mm" x="10mm" y="175.48314723866355mm" /><rect fill="black" height="0.5mm" width="3mm" x="10mm" y="179.32287159305108mm" /><rect fill="black" height="0.5mm" width="3mm" x="10mm" y="183.1625959474386mm" /><rect fill="black" height="0.5mm" width="6mm" x="10mm" y="167.8036985298885mm" /><rect fill="white" height="0.5mm" width="6mm" x="10mm" y="148.60507675795088mm" /><rect fill="white" height="0.5mm" width="6mm" x="10mm" y="187.00232030182613mm" /><rect fill="black" height="1.25mm" width="9mm" x="10mm" y="182.7875959474386mm" /><rect fill="black" height="1.25mm" width="9mm" x="10mm" y="221.18483949131385mm" /><rect fill="black" height="0.5mm" width="3mm" x="10mm" y="190.84204465621366mm" /><rect fill="black" height="0.5mm" width="3mm" x="10mm" y="194.6817690106012mm" /><rect fill="black" height="0.5mm" width="3mm" x="10mm" y="198.52149336498871mm" /><rect fill="black" height="0.5mm" width="3mm" x="10mm" y="202.3612177193762mm" /><rect fill="black" height="0.5mm" width="3mm" x="10mm" y="206.20094207376377mm" /><rect fill="black" height="0.5mm" width="3mm" x="10mm" y="210.04066642815127mm" /><rect fill="black" height="0.5mm" width="3mm" x="10mm" y="213.8803907825388mm" /><rect fill="black" height="0.5mm" width="3mm" x="10mm" y="217.72011513692632mm" /><rect fill="black" height="0.5mm" width="6mm" x="10mm" y="202.3612177193762mm" /><rect fill="white" height="0.5mm" width="6mm" x="10mm" y="183.1625959474386mm" /><rect fill="white" height="0.5mm" width="6mm" x="10mm" y="221.55983949131385mm" /><rect fill="black" height="1.25mm" width="9mm" x="10mm" y="217.34511513692632mm" /><rect fill="black" height="1.25mm" width="9mm" x="10mm" y="255.74235868080157mm" /><rect fill="black" height="0.5mm" width="3mm" x="10mm" y="225.39956384570138mm" /><rect fill="black" height="0.5mm" width="3mm" x="10mm" y="229.2392882000889mm" /><rect fill="black" height="0.5mm" width="3mm" x="10mm" y="233.07901255447644mm" /><rect fill="black" height="0.5mm" width="3mm" x="10mm" y="236.91873690886393mm" /><rect fill="black" height="0.5mm" width="3mm" x="10mm" y="240.7584612632515mm" /><rect fill="black" height="0.5mm" width="3mm" x="10mm" y="244.598185617639mm" /><rect fill="black" height="0.5mm" width="3mm" x="10mm" y="248.43790997202652mm" /><rect fill="black" height="0.5mm" width="3mm" x="10mm" y="252.27763432641405mm" /><rect fill="black" height="0.5mm" width="6mm" x="10mm" y="236.91873690886393mm" /><rect fill="white" height="0.5mm" width="6mm" x="10mm" y="217.72011513692632mm" /><rect fill="white" height="0.5mm" width="6mm" x="10mm" y="256.11735868080154mm" /></svg>